<svg xmlns="http://www.w3.org/2000/svg" viewBox="0 0 512 512" fill="none">
  <rect width="512" height="512" rx="96" fill="#4a7c59"/>
  <path d="M256 120c-40 0-72 32-72 72 0 24 12 44 30 58-18 14-30 34-30 58 0 40 32 72 72 72s72-32 72-72c0-24-12-44-30-58 18-14 30-34 30-58 0-40-32-72-72-72z" fill="#f4d35e"/>
  <ellipse cx="236" cy="200" rx="8" ry="10" fill="#2d2d2d"/>
  <ellipse cx="276" cy="200" rx="8" ry="10" fill="#2d2d2d"/>
  <path d="M256 240c-12 0-20 8-20 20v60c0 12 8 20 20 20s20-8 20-20v-60c0-12-8-20-20-20z" fill="#2d2d2d"/>
  <path d="M180 320c-20 0-36 16-36 36v80c0 20 16 36 36 36 20 0 36-16 36-36v-80c0-20-16-36-36-36zM332 320c-20 0-36 16-36 36v80c0 20 16 36 36 36 20 0 36-16 36-36v-80c0-20-16-36-36-36z" fill="#f4d35e"/>
  <path d="M256 100c-4 0-8 4-8 8v12c0 4 4 8 8 8s8-4 8-8v-12c0-4-4-8-8-8z" fill="#f4d35e"/>
</svg>
